<?xml version="1.0" encoding="utf-8"?>
<!-- Generator: Adobe Illustrator 16.0.3, SVG Export Plug-In . SVG Version: 6.00 Build 0)  -->
<!DOCTYPE svg PUBLIC "-//W3C//DTD SVG 1.1//EN" "http://www.w3.org/Graphics/SVG/1.1/DTD/svg11.dtd">
<svg version="1.1" id="Linkedin" xmlns="http://www.w3.org/2000/svg" xmlns:xlink="http://www.w3.org/1999/xlink" x="0px" y="0px"
	 width="612px" height="792px" viewBox="0 0 612 792" enable-background="new 0 0 612 792" xml:space="preserve">
<title>Artboard 14</title>
<path id="plain" fill="#EDFDFF" d="M554.625,104.344H57.375c-23.491-0.239-42.743,18.584-43.031,42.075v499.258
	c0.341,23.453,19.577,42.219,43.031,41.979h497.25c23.488,0.187,42.717-18.636,43.031-42.123V146.275
	C597.237,122.863,578.04,104.156,554.625,104.344z M187.282,601.594h-86.588V322.99h86.588V601.594z M144.25,285.027
	c-27.727,0.026-50.225-22.429-50.251-50.155c-0.026-27.727,22.429-50.225,50.155-50.251c27.726-0.026,50.225,22.429,50.251,50.155
	c0,0.016,0,0.032,0,0.048c-0.053,27.726-22.572,50.16-50.298,50.107c-0.032,0-0.064,0-0.096,0L144.25,285.027z M511.594,601.594
	h-86.589V466.045c0-32.273-0.573-73.822-44.991-73.822s-51.972,35.19-51.972,71.719v137.652h-86.445V322.99h83.002v38.25h1.147
	c11.571-21.898,39.78-44.992,81.903-44.992c87.688-0.191,103.944,57.519,103.944,132.345V601.594z"/>
</svg>
